<svg
  width="16"
  height="16"
  viewBox="0 0 16 16"
  fill="none"
  xmlns="http://www.w3.org/2000/svg"
>
  <g clip-path="url(#brain-clip)">
    <path
      d="M8 1C4.13401 1 1 4.13401 1 8C1 11.866 4.13401 15 8 15C11.866 15 15 11.866 15 8C15 4.13401 11.866 1 8 1ZM11.5 9C11.2239 9 11 8.77614 11 8.5C11 8.22386 11.2239 8 11.5 8C11.7761 8 12 8.22386 12 8.5C12 8.77614 11.7761 9 11.5 9ZM8 12C6.34315 12 5 10.6569 5 9C5 7.34315 6.34315 6 8 6C9.65685 6 11 7.34315 11 9C11 10.6569 9.65685 12 8 12ZM4.5 9C4.22386 9 4 8.77614 4 8.5C4 8.22386 4.22386 8 4.5 8C4.77614 8 5 8.22386 5 8.5C5 8.77614 4.77614 9 4.5 9Z"
      fill="#2781F6"
    />
  </g>
  <defs>
    <clipPath id="brain-clip">
      <rect width="16" height="16" fill="white" />
    </clipPath>
  </defs>
</svg>
