<?xml version="1.0" encoding="UTF-8"?>
<svg width="150" height="40" viewBox="0 0 150 40" fill="none" xmlns="http://www.w3.org/2000/svg">
  <!-- Brain Icon -->
  <path d="M20 5C13.925 5 9 9.925 9 16C9 22.075 13.925 27 20 27C26.075 27 31 22.075 31 16C31 9.925 26.075 5 20 5ZM25.5 17.5C24.675 17.5 24 16.825 24 16C24 15.175 24.675 14.5 25.5 14.5C26.325 14.5 27 15.175 27 16C27 16.825 26.325 17.5 25.5 17.5ZM20 25C16.685 25 14 22.315 14 19C14 15.685 16.685 13 20 13C23.315 13 26 15.685 26 19C26 22.315 23.315 25 20 25ZM14.5 17.5C13.675 17.5 13 16.825 13 16C13 15.175 13.675 14.5 14.5 14.5C15.325 14.5 16 15.175 16 16C16 16.825 15.325 17.5 14.5 17.5Z" fill="#4A90E2"/>
  
  <!-- Text -->
  <text x="45" y="27" font-family="Inter, Arial, sans-serif" font-size="24" font-weight="600" fill="#FFFFFF">
    OmniAI
  </text>
</svg>
